<mxfile host="Electron" modified="2023-06-10T09:26:46.080Z" agent="Mozilla/5.0 (Windows NT 10.0; Win64; x64) AppleWebKit/537.36 (KHTML, like Gecko) draw.io/21.2.8 Chrome/112.0.5615.165 Electron/24.2.0 Safari/537.36" etag="IsfaTBfH4GtLlh_zCE5s" version="21.2.8" type="device" pages="3">
  <diagram id="26P1nS-UY8O582c0YBtW" name="Skiplist">
    <mxGraphModel dx="1418" dy="828" grid="1" gridSize="10" guides="1" tooltips="1" connect="1" arrows="1" fold="1" page="1" pageScale="1" pageWidth="1100" pageHeight="850" math="0" shadow="0">
      <root>
        <mxCell id="0" />
        <mxCell id="1" value="node" style="locked=1;" parent="0" />
        <mxCell id="CtYc6z3GJh8hig1fCwQO-34" value="" style="group" parent="1" vertex="1" connectable="0">
          <mxGeometry x="160" y="320" width="40" height="40" as="geometry" />
        </mxCell>
        <mxCell id="CtYc6z3GJh8hig1fCwQO-35" value="" style="whiteSpace=wrap;html=1;aspect=fixed;" parent="CtYc6z3GJh8hig1fCwQO-34" vertex="1">
          <mxGeometry width="40" height="40" as="geometry" />
        </mxCell>
        <mxCell id="CtYc6z3GJh8hig1fCwQO-36" value="" style="shape=ellipse;fillColor=#000000;strokeColor=none;html=1;sketch=0;" parent="CtYc6z3GJh8hig1fCwQO-34" vertex="1">
          <mxGeometry x="15" y="15" width="10" height="10" as="geometry" />
        </mxCell>
        <mxCell id="CtYc6z3GJh8hig1fCwQO-37" value="" style="group" parent="1" vertex="1" connectable="0">
          <mxGeometry x="160" y="360" width="40" height="40" as="geometry" />
        </mxCell>
        <mxCell id="CtYc6z3GJh8hig1fCwQO-38" value="" style="whiteSpace=wrap;html=1;aspect=fixed;" parent="CtYc6z3GJh8hig1fCwQO-37" vertex="1">
          <mxGeometry width="40" height="40" as="geometry" />
        </mxCell>
        <mxCell id="CtYc6z3GJh8hig1fCwQO-39" value="" style="shape=ellipse;fillColor=#000000;strokeColor=none;html=1;sketch=0;" parent="CtYc6z3GJh8hig1fCwQO-37" vertex="1">
          <mxGeometry x="15" y="15" width="10" height="10" as="geometry" />
        </mxCell>
        <mxCell id="CtYc6z3GJh8hig1fCwQO-40" value="" style="group" parent="1" vertex="1" connectable="0">
          <mxGeometry x="160" y="400" width="40" height="40" as="geometry" />
        </mxCell>
        <mxCell id="CtYc6z3GJh8hig1fCwQO-41" value="" style="whiteSpace=wrap;html=1;aspect=fixed;" parent="CtYc6z3GJh8hig1fCwQO-40" vertex="1">
          <mxGeometry width="40" height="40" as="geometry" />
        </mxCell>
        <mxCell id="CtYc6z3GJh8hig1fCwQO-42" value="" style="shape=ellipse;fillColor=#000000;strokeColor=none;html=1;sketch=0;" parent="CtYc6z3GJh8hig1fCwQO-40" vertex="1">
          <mxGeometry x="15" y="15" width="10" height="10" as="geometry" />
        </mxCell>
        <mxCell id="CtYc6z3GJh8hig1fCwQO-45" value="" style="group" parent="1" vertex="1" connectable="0">
          <mxGeometry x="160" y="440" width="40" height="40" as="geometry" />
        </mxCell>
        <mxCell id="CtYc6z3GJh8hig1fCwQO-46" value="" style="whiteSpace=wrap;html=1;aspect=fixed;" parent="CtYc6z3GJh8hig1fCwQO-45" vertex="1">
          <mxGeometry width="40" height="40" as="geometry" />
        </mxCell>
        <mxCell id="CtYc6z3GJh8hig1fCwQO-47" value="" style="shape=ellipse;fillColor=#000000;strokeColor=none;html=1;sketch=0;" parent="CtYc6z3GJh8hig1fCwQO-45" vertex="1">
          <mxGeometry x="15" y="15" width="10" height="10" as="geometry" />
        </mxCell>
        <mxCell id="CtYc6z3GJh8hig1fCwQO-57" value="" style="group" parent="1" vertex="1" connectable="0">
          <mxGeometry x="240" y="400" width="40" height="40" as="geometry" />
        </mxCell>
        <mxCell id="CtYc6z3GJh8hig1fCwQO-58" value="" style="whiteSpace=wrap;html=1;aspect=fixed;" parent="CtYc6z3GJh8hig1fCwQO-57" vertex="1">
          <mxGeometry width="40" height="40" as="geometry" />
        </mxCell>
        <mxCell id="CtYc6z3GJh8hig1fCwQO-59" value="" style="shape=ellipse;fillColor=#000000;strokeColor=none;html=1;sketch=0;" parent="CtYc6z3GJh8hig1fCwQO-57" vertex="1">
          <mxGeometry x="15" y="15" width="10" height="10" as="geometry" />
        </mxCell>
        <mxCell id="CtYc6z3GJh8hig1fCwQO-60" value="" style="group" parent="1" vertex="1" connectable="0">
          <mxGeometry x="240" y="440" width="40" height="40" as="geometry" />
        </mxCell>
        <mxCell id="CtYc6z3GJh8hig1fCwQO-61" value="" style="whiteSpace=wrap;html=1;aspect=fixed;" parent="CtYc6z3GJh8hig1fCwQO-60" vertex="1">
          <mxGeometry width="40" height="40" as="geometry" />
        </mxCell>
        <mxCell id="CtYc6z3GJh8hig1fCwQO-62" value="" style="shape=ellipse;fillColor=#000000;strokeColor=none;html=1;sketch=0;" parent="CtYc6z3GJh8hig1fCwQO-60" vertex="1">
          <mxGeometry x="15" y="15" width="10" height="10" as="geometry" />
        </mxCell>
        <mxCell id="CtYc6z3GJh8hig1fCwQO-69" value="" style="group" parent="1" vertex="1" connectable="0">
          <mxGeometry x="320" y="360" width="40" height="40" as="geometry" />
        </mxCell>
        <mxCell id="CtYc6z3GJh8hig1fCwQO-70" value="" style="whiteSpace=wrap;html=1;aspect=fixed;" parent="CtYc6z3GJh8hig1fCwQO-69" vertex="1">
          <mxGeometry width="40" height="40" as="geometry" />
        </mxCell>
        <mxCell id="CtYc6z3GJh8hig1fCwQO-71" value="" style="shape=ellipse;fillColor=#000000;strokeColor=none;html=1;sketch=0;" parent="CtYc6z3GJh8hig1fCwQO-69" vertex="1">
          <mxGeometry x="15" y="15" width="10" height="10" as="geometry" />
        </mxCell>
        <mxCell id="CtYc6z3GJh8hig1fCwQO-72" value="" style="group" parent="1" vertex="1" connectable="0">
          <mxGeometry x="320" y="400" width="40" height="40" as="geometry" />
        </mxCell>
        <mxCell id="CtYc6z3GJh8hig1fCwQO-73" value="" style="whiteSpace=wrap;html=1;aspect=fixed;" parent="CtYc6z3GJh8hig1fCwQO-72" vertex="1">
          <mxGeometry width="40" height="40" as="geometry" />
        </mxCell>
        <mxCell id="CtYc6z3GJh8hig1fCwQO-74" value="" style="shape=ellipse;fillColor=#000000;strokeColor=none;html=1;sketch=0;" parent="CtYc6z3GJh8hig1fCwQO-72" vertex="1">
          <mxGeometry x="15" y="15" width="10" height="10" as="geometry" />
        </mxCell>
        <mxCell id="CtYc6z3GJh8hig1fCwQO-75" value="" style="group" parent="1" vertex="1" connectable="0">
          <mxGeometry x="320" y="440" width="40" height="40" as="geometry" />
        </mxCell>
        <mxCell id="CtYc6z3GJh8hig1fCwQO-76" value="" style="whiteSpace=wrap;html=1;aspect=fixed;" parent="CtYc6z3GJh8hig1fCwQO-75" vertex="1">
          <mxGeometry width="40" height="40" as="geometry" />
        </mxCell>
        <mxCell id="CtYc6z3GJh8hig1fCwQO-77" value="" style="shape=ellipse;fillColor=#000000;strokeColor=none;html=1;sketch=0;" parent="CtYc6z3GJh8hig1fCwQO-75" vertex="1">
          <mxGeometry x="15" y="15" width="10" height="10" as="geometry" />
        </mxCell>
        <mxCell id="CtYc6z3GJh8hig1fCwQO-90" value="" style="group" parent="1" vertex="1" connectable="0">
          <mxGeometry x="400" y="440" width="40" height="40" as="geometry" />
        </mxCell>
        <mxCell id="CtYc6z3GJh8hig1fCwQO-91" value="" style="whiteSpace=wrap;html=1;aspect=fixed;" parent="CtYc6z3GJh8hig1fCwQO-90" vertex="1">
          <mxGeometry width="40" height="40" as="geometry" />
        </mxCell>
        <mxCell id="CtYc6z3GJh8hig1fCwQO-92" value="" style="shape=ellipse;fillColor=#000000;strokeColor=none;html=1;sketch=0;" parent="CtYc6z3GJh8hig1fCwQO-90" vertex="1">
          <mxGeometry x="15" y="15" width="10" height="10" as="geometry" />
        </mxCell>
        <mxCell id="CtYc6z3GJh8hig1fCwQO-96" value="" style="group" parent="1" vertex="1" connectable="0">
          <mxGeometry x="480" y="320" width="40" height="40" as="geometry" />
        </mxCell>
        <mxCell id="CtYc6z3GJh8hig1fCwQO-97" value="" style="whiteSpace=wrap;html=1;aspect=fixed;" parent="CtYc6z3GJh8hig1fCwQO-96" vertex="1">
          <mxGeometry width="40" height="40" as="geometry" />
        </mxCell>
        <mxCell id="CtYc6z3GJh8hig1fCwQO-98" value="" style="shape=ellipse;fillColor=#000000;strokeColor=none;html=1;sketch=0;" parent="CtYc6z3GJh8hig1fCwQO-96" vertex="1">
          <mxGeometry x="15" y="15" width="10" height="10" as="geometry" />
        </mxCell>
        <mxCell id="CtYc6z3GJh8hig1fCwQO-99" value="" style="group" parent="1" vertex="1" connectable="0">
          <mxGeometry x="480" y="360" width="40" height="40" as="geometry" />
        </mxCell>
        <mxCell id="CtYc6z3GJh8hig1fCwQO-100" value="" style="whiteSpace=wrap;html=1;aspect=fixed;" parent="CtYc6z3GJh8hig1fCwQO-99" vertex="1">
          <mxGeometry width="40" height="40" as="geometry" />
        </mxCell>
        <mxCell id="CtYc6z3GJh8hig1fCwQO-101" value="" style="shape=ellipse;fillColor=#000000;strokeColor=none;html=1;sketch=0;" parent="CtYc6z3GJh8hig1fCwQO-99" vertex="1">
          <mxGeometry x="15" y="15" width="10" height="10" as="geometry" />
        </mxCell>
        <mxCell id="CtYc6z3GJh8hig1fCwQO-102" value="" style="group" parent="1" vertex="1" connectable="0">
          <mxGeometry x="480" y="400" width="40" height="40" as="geometry" />
        </mxCell>
        <mxCell id="CtYc6z3GJh8hig1fCwQO-103" value="" style="whiteSpace=wrap;html=1;aspect=fixed;" parent="CtYc6z3GJh8hig1fCwQO-102" vertex="1">
          <mxGeometry width="40" height="40" as="geometry" />
        </mxCell>
        <mxCell id="CtYc6z3GJh8hig1fCwQO-104" value="" style="shape=ellipse;fillColor=#000000;strokeColor=none;html=1;sketch=0;" parent="CtYc6z3GJh8hig1fCwQO-102" vertex="1">
          <mxGeometry x="15" y="15" width="10" height="10" as="geometry" />
        </mxCell>
        <mxCell id="CtYc6z3GJh8hig1fCwQO-105" value="" style="group" parent="1" vertex="1" connectable="0">
          <mxGeometry x="480" y="440" width="40" height="40" as="geometry" />
        </mxCell>
        <mxCell id="CtYc6z3GJh8hig1fCwQO-106" value="" style="whiteSpace=wrap;html=1;aspect=fixed;" parent="CtYc6z3GJh8hig1fCwQO-105" vertex="1">
          <mxGeometry width="40" height="40" as="geometry" />
        </mxCell>
        <mxCell id="CtYc6z3GJh8hig1fCwQO-107" value="" style="shape=ellipse;fillColor=#000000;strokeColor=none;html=1;sketch=0;" parent="CtYc6z3GJh8hig1fCwQO-105" vertex="1">
          <mxGeometry x="15" y="15" width="10" height="10" as="geometry" />
        </mxCell>
        <mxCell id="CtYc6z3GJh8hig1fCwQO-123" value="3" style="text;html=1;align=center;verticalAlign=middle;resizable=0;points=[];autosize=1;strokeColor=none;fillColor=none;fontSize=25;" parent="1" vertex="1">
          <mxGeometry x="160" y="475" width="40" height="40" as="geometry" />
        </mxCell>
        <mxCell id="CtYc6z3GJh8hig1fCwQO-124" value="4" style="text;html=1;align=center;verticalAlign=middle;resizable=0;points=[];autosize=1;strokeColor=none;fillColor=none;fontSize=25;" parent="1" vertex="1">
          <mxGeometry x="240" y="475" width="40" height="40" as="geometry" />
        </mxCell>
        <mxCell id="CtYc6z3GJh8hig1fCwQO-125" value="10" style="text;html=1;align=center;verticalAlign=middle;resizable=0;points=[];autosize=1;strokeColor=none;fillColor=none;fontSize=25;" parent="1" vertex="1">
          <mxGeometry x="315" y="475" width="50" height="40" as="geometry" />
        </mxCell>
        <mxCell id="CtYc6z3GJh8hig1fCwQO-126" value="12" style="text;html=1;align=center;verticalAlign=middle;resizable=0;points=[];autosize=1;strokeColor=none;fillColor=none;fontSize=25;" parent="1" vertex="1">
          <mxGeometry x="395" y="475" width="50" height="40" as="geometry" />
        </mxCell>
        <mxCell id="CtYc6z3GJh8hig1fCwQO-127" value="13" style="text;html=1;align=center;verticalAlign=middle;resizable=0;points=[];autosize=1;strokeColor=none;fillColor=none;fontSize=25;" parent="1" vertex="1">
          <mxGeometry x="475" y="475" width="50" height="40" as="geometry" />
        </mxCell>
        <mxCell id="CtYc6z3GJh8hig1fCwQO-28" value="pointers" style="locked=1;" parent="0" />
        <mxCell id="CtYc6z3GJh8hig1fCwQO-111" style="edgeStyle=orthogonalEdgeStyle;rounded=0;orthogonalLoop=1;jettySize=auto;html=1;exitX=1;exitY=0.5;exitDx=0;exitDy=0;" parent="CtYc6z3GJh8hig1fCwQO-28" source="CtYc6z3GJh8hig1fCwQO-36" target="CtYc6z3GJh8hig1fCwQO-97" edge="1">
          <mxGeometry relative="1" as="geometry" />
        </mxCell>
        <mxCell id="CtYc6z3GJh8hig1fCwQO-112" style="edgeStyle=orthogonalEdgeStyle;rounded=0;orthogonalLoop=1;jettySize=auto;html=1;exitX=1;exitY=0.5;exitDx=0;exitDy=0;" parent="CtYc6z3GJh8hig1fCwQO-28" source="CtYc6z3GJh8hig1fCwQO-39" target="CtYc6z3GJh8hig1fCwQO-70" edge="1">
          <mxGeometry relative="1" as="geometry" />
        </mxCell>
        <mxCell id="CtYc6z3GJh8hig1fCwQO-113" style="edgeStyle=orthogonalEdgeStyle;rounded=0;orthogonalLoop=1;jettySize=auto;html=1;exitX=1;exitY=0.5;exitDx=0;exitDy=0;entryX=0;entryY=0.5;entryDx=0;entryDy=0;" parent="CtYc6z3GJh8hig1fCwQO-28" source="CtYc6z3GJh8hig1fCwQO-71" target="CtYc6z3GJh8hig1fCwQO-100" edge="1">
          <mxGeometry relative="1" as="geometry" />
        </mxCell>
        <mxCell id="CtYc6z3GJh8hig1fCwQO-115" style="edgeStyle=orthogonalEdgeStyle;rounded=0;orthogonalLoop=1;jettySize=auto;html=1;exitX=1;exitY=0.5;exitDx=0;exitDy=0;" parent="CtYc6z3GJh8hig1fCwQO-28" source="CtYc6z3GJh8hig1fCwQO-42" target="CtYc6z3GJh8hig1fCwQO-58" edge="1">
          <mxGeometry relative="1" as="geometry" />
        </mxCell>
        <mxCell id="CtYc6z3GJh8hig1fCwQO-117" style="edgeStyle=orthogonalEdgeStyle;rounded=0;orthogonalLoop=1;jettySize=auto;html=1;exitX=1;exitY=0.5;exitDx=0;exitDy=0;entryX=0;entryY=0.5;entryDx=0;entryDy=0;" parent="CtYc6z3GJh8hig1fCwQO-28" source="CtYc6z3GJh8hig1fCwQO-59" target="CtYc6z3GJh8hig1fCwQO-73" edge="1">
          <mxGeometry relative="1" as="geometry" />
        </mxCell>
        <mxCell id="CtYc6z3GJh8hig1fCwQO-118" style="edgeStyle=orthogonalEdgeStyle;rounded=0;orthogonalLoop=1;jettySize=auto;html=1;exitX=1;exitY=0.5;exitDx=0;exitDy=0;entryX=0;entryY=0.5;entryDx=0;entryDy=0;" parent="CtYc6z3GJh8hig1fCwQO-28" source="CtYc6z3GJh8hig1fCwQO-74" target="CtYc6z3GJh8hig1fCwQO-103" edge="1">
          <mxGeometry relative="1" as="geometry" />
        </mxCell>
        <mxCell id="CtYc6z3GJh8hig1fCwQO-119" style="edgeStyle=orthogonalEdgeStyle;rounded=0;orthogonalLoop=1;jettySize=auto;html=1;exitX=1;exitY=0.5;exitDx=0;exitDy=0;entryX=0;entryY=0.5;entryDx=0;entryDy=0;" parent="CtYc6z3GJh8hig1fCwQO-28" source="CtYc6z3GJh8hig1fCwQO-47" target="CtYc6z3GJh8hig1fCwQO-61" edge="1">
          <mxGeometry relative="1" as="geometry" />
        </mxCell>
        <mxCell id="CtYc6z3GJh8hig1fCwQO-120" style="edgeStyle=orthogonalEdgeStyle;rounded=0;orthogonalLoop=1;jettySize=auto;html=1;exitX=1;exitY=0.5;exitDx=0;exitDy=0;" parent="CtYc6z3GJh8hig1fCwQO-28" source="CtYc6z3GJh8hig1fCwQO-62" target="CtYc6z3GJh8hig1fCwQO-76" edge="1">
          <mxGeometry relative="1" as="geometry" />
        </mxCell>
        <mxCell id="CtYc6z3GJh8hig1fCwQO-121" style="edgeStyle=orthogonalEdgeStyle;rounded=0;orthogonalLoop=1;jettySize=auto;html=1;exitX=1;exitY=0.5;exitDx=0;exitDy=0;" parent="CtYc6z3GJh8hig1fCwQO-28" source="CtYc6z3GJh8hig1fCwQO-77" target="CtYc6z3GJh8hig1fCwQO-91" edge="1">
          <mxGeometry relative="1" as="geometry" />
        </mxCell>
        <mxCell id="CtYc6z3GJh8hig1fCwQO-122" style="edgeStyle=orthogonalEdgeStyle;rounded=0;orthogonalLoop=1;jettySize=auto;html=1;exitX=1;exitY=0.5;exitDx=0;exitDy=0;entryX=0;entryY=0.5;entryDx=0;entryDy=0;" parent="CtYc6z3GJh8hig1fCwQO-28" source="CtYc6z3GJh8hig1fCwQO-92" target="CtYc6z3GJh8hig1fCwQO-106" edge="1">
          <mxGeometry relative="1" as="geometry" />
        </mxCell>
      </root>
    </mxGraphModel>
  </diagram>
  <diagram id="HtyANLdsjW-GkI9iGdCR" name="RCU">
    <mxGraphModel dx="1418" dy="828" grid="1" gridSize="10" guides="1" tooltips="1" connect="1" arrows="1" fold="1" page="1" pageScale="1" pageWidth="1100" pageHeight="850" math="0" shadow="0">
      <root>
        <mxCell id="0" />
        <mxCell id="1" parent="0" />
        <mxCell id="ghas_VMqyISU4I0DDxJF-7" style="edgeStyle=none;rounded=0;orthogonalLoop=1;jettySize=auto;html=1;entryX=0.5;entryY=0;entryDx=0;entryDy=0;strokeWidth=3;fontSize=25;" parent="1" target="ghas_VMqyISU4I0DDxJF-13" edge="1">
          <mxGeometry relative="1" as="geometry">
            <mxPoint x="209.7872340425532" y="284.0000000000002" as="sourcePoint" />
          </mxGeometry>
        </mxCell>
        <mxCell id="ghas_VMqyISU4I0DDxJF-8" value="" style="shape=ellipse;strokeColor=none;html=1;fillColor=#000000;fontSize=25;container=0;" parent="1" vertex="1">
          <mxGeometry x="201.06382978723406" y="274.6666666666667" width="17.4468085106383" height="18.666666666666668" as="geometry" />
        </mxCell>
        <mxCell id="ghas_VMqyISU4I0DDxJF-11" value="Reader" style="ellipse;whiteSpace=wrap;html=1;aspect=fixed;fillColor=#FFFFFF;fontSize=25;container=0;" parent="1" vertex="1">
          <mxGeometry x="462.77" y="386.67" width="83.33" height="83.33" as="geometry" />
        </mxCell>
        <mxCell id="ghas_VMqyISU4I0DDxJF-12" value="1 (Stale)" style="rounded=1;whiteSpace=wrap;html=1;fillColor=#FFFFFF;fontSize=25;container=0;" parent="1" vertex="1">
          <mxGeometry x="358.0851063829787" y="256" width="104.68085106382979" height="56.00000000000001" as="geometry" />
        </mxCell>
        <mxCell id="ghas_VMqyISU4I0DDxJF-13" value="2 (New)" style="rounded=1;whiteSpace=wrap;html=1;fillColor=#FFFFFF;fontSize=25;container=0;" parent="1" vertex="1">
          <mxGeometry x="174.8936170212766" y="405.33333333333337" width="104.68085106382979" height="56.00000000000001" as="geometry" />
        </mxCell>
        <mxCell id="ghas_VMqyISU4I0DDxJF-31" value="global_ptr" style="text;html=1;strokeColor=none;fillColor=none;align=center;verticalAlign=middle;whiteSpace=wrap;rounded=0;fontSize=25;container=0;" parent="1" vertex="1">
          <mxGeometry x="140" y="237.33333333333334" width="139.5744680851064" height="37.333333333333336" as="geometry" />
        </mxCell>
        <mxCell id="ghas_VMqyISU4I0DDxJF-10" style="edgeStyle=none;rounded=0;orthogonalLoop=1;jettySize=auto;html=1;exitX=0;exitY=0;exitDx=0;exitDy=0;entryX=0.5;entryY=1;entryDx=0;entryDy=0;strokeWidth=3;fontSize=25;" parent="1" source="ghas_VMqyISU4I0DDxJF-11" target="ghas_VMqyISU4I0DDxJF-12" edge="1">
          <mxGeometry relative="1" as="geometry" />
        </mxCell>
        <mxCell id="ghas_VMqyISU4I0DDxJF-35" value="" style="endArrow=classic;html=1;rounded=0;exitX=1;exitY=0.5;exitDx=0;exitDy=0;entryX=0;entryY=0.5;entryDx=0;entryDy=0;dashed=1;fontSize=25;strokeWidth=3;" parent="1" source="ghas_VMqyISU4I0DDxJF-8" target="ghas_VMqyISU4I0DDxJF-12" edge="1">
          <mxGeometry width="50" height="50" relative="1" as="geometry">
            <mxPoint x="244.68085106382978" y="293.33333333333337" as="sourcePoint" />
            <mxPoint x="366.8085106382979" y="368" as="targetPoint" />
          </mxGeometry>
        </mxCell>
        <mxCell id="ghas_VMqyISU4I0DDxJF-36" value="" style="html=1;shadow=0;dashed=0;align=center;verticalAlign=middle;shape=mxgraph.arrows2.jumpInArrow;dy=15;dx=38;arrowHead=55;strokeColor=default;fillColor=default;rotation=-210;fontSize=25;container=0;" parent="1" vertex="1">
          <mxGeometry x="218.51063829787233" y="330.66666666666663" width="157.0212765957447" height="74.66666666666667" as="geometry" />
        </mxCell>
        <mxCell id="ghas_VMqyISU4I0DDxJF-37" value="&lt;span style=&quot;background-color: rgb(255, 255, 255); font-size: 25px;&quot;&gt;Atomic&lt;/span&gt;&lt;br style=&quot;font-size: 25px;&quot;&gt;&lt;span style=&quot;background-color: rgb(255, 255, 255); font-size: 25px;&quot;&gt;Operation&lt;/span&gt;" style="text;html=1;align=center;verticalAlign=middle;resizable=0;points=[];autosize=1;strokeColor=none;fillColor=none;fontSize=25;container=0;" parent="1" vertex="1">
          <mxGeometry x="259.99744680851063" y="329.99666666666667" width="130" height="70" as="geometry" />
        </mxCell>
        <mxCell id="ghas_VMqyISU4I0DDxJF-38" value="free" style="html=1;verticalLabelPosition=middle;labelBackgroundColor=none;verticalAlign=bottom;shadow=0;dashed=0;strokeWidth=2;shape=mxgraph.ios7.misc.delete;fillColor=#ff0000;strokeColor=default;sketch=0;fontSize=25;container=0;labelPosition=center;align=center;" parent="1" vertex="1">
          <mxGeometry x="462.765744680851" y="218.67000000000002" width="69.7872340425532" height="74.66666666666667" as="geometry" />
        </mxCell>
        <mxCell id="ghas_VMqyISU4I0DDxJF-40" value="3" style="ellipse;whiteSpace=wrap;html=1;aspect=fixed;labelBackgroundColor=none;strokeColor=default;fontSize=25;fillColor=#33FFFF;" parent="1" vertex="1">
          <mxGeometry x="440" y="226" width="30" height="30" as="geometry" />
        </mxCell>
        <mxCell id="ghas_VMqyISU4I0DDxJF-41" value="1" style="ellipse;whiteSpace=wrap;html=1;aspect=fixed;labelBackgroundColor=none;strokeColor=default;fontSize=25;fillColor=#33FFFF;" parent="1" vertex="1">
          <mxGeometry x="160" y="450.00000000000006" width="30" height="30" as="geometry" />
        </mxCell>
        <mxCell id="ghas_VMqyISU4I0DDxJF-42" value="2" style="ellipse;whiteSpace=wrap;html=1;aspect=fixed;labelBackgroundColor=none;strokeColor=default;fontSize=25;fillColor=#33FFFF;" parent="1" vertex="1">
          <mxGeometry x="249.57" y="330.67" width="30" height="30" as="geometry" />
        </mxCell>
      </root>
    </mxGraphModel>
  </diagram>
  <diagram id="uphw1AqxE0x7XquXM5oC" name="MV-RLU">
    <mxGraphModel dx="1418" dy="828" grid="1" gridSize="10" guides="1" tooltips="1" connect="1" arrows="1" fold="1" page="1" pageScale="1" pageWidth="1100" pageHeight="850" math="0" shadow="0">
      <root>
        <mxCell id="0" />
        <mxCell id="1" value="log" style="locked=1;" parent="0" />
        <mxCell id="mtELaRP0LzYA_vTyB1si-15" value="T2 log" style="rounded=1;whiteSpace=wrap;html=1;labelBackgroundColor=none;strokeColor=default;fontSize=25;align=left;" parent="1" vertex="1">
          <mxGeometry x="260" y="280" width="260" height="80" as="geometry" />
        </mxCell>
        <mxCell id="mtELaRP0LzYA_vTyB1si-16" value="T1 log" style="rounded=1;whiteSpace=wrap;html=1;labelBackgroundColor=none;strokeColor=default;fontSize=25;align=left;" parent="1" vertex="1">
          <mxGeometry x="260" y="170" width="260" height="80" as="geometry" />
        </mxCell>
        <mxCell id="eqQZ3-OeXB-6L2m80v3y-13" value="T3 log" style="rounded=1;whiteSpace=wrap;html=1;labelBackgroundColor=none;strokeColor=default;fontSize=25;align=left;" parent="1" vertex="1">
          <mxGeometry x="260" y="520" width="260" height="80" as="geometry" />
        </mxCell>
        <mxCell id="mtELaRP0LzYA_vTyB1si-9" value="nodes" style="locked=1;" parent="0" />
        <mxCell id="mtELaRP0LzYA_vTyB1si-17" style="edgeStyle=orthogonalEdgeStyle;rounded=0;orthogonalLoop=1;jettySize=auto;html=1;exitX=0.5;exitY=0;exitDx=0;exitDy=0;entryX=0.5;entryY=1;entryDx=0;entryDy=0;strokeWidth=3;fontSize=25;fillColor=#dae8fc;strokeColor=#6c8ebf;" parent="mtELaRP0LzYA_vTyB1si-9" source="mtELaRP0LzYA_vTyB1si-10" target="mtELaRP0LzYA_vTyB1si-12" edge="1">
          <mxGeometry relative="1" as="geometry" />
        </mxCell>
        <mxCell id="eqQZ3-OeXB-6L2m80v3y-18" style="edgeStyle=orthogonalEdgeStyle;rounded=0;orthogonalLoop=1;jettySize=auto;html=1;exitX=0.5;exitY=1;exitDx=0;exitDy=0;entryX=0.5;entryY=0;entryDx=0;entryDy=0;strokeWidth=3;fontSize=20;fillColor=#fa6800;strokeColor=#C73500;sketch=1;startArrow=none;" parent="mtELaRP0LzYA_vTyB1si-9" source="eqQZ3-OeXB-6L2m80v3y-19" target="eqQZ3-OeXB-6L2m80v3y-17" edge="1">
          <mxGeometry relative="1" as="geometry" />
        </mxCell>
        <mxCell id="mtELaRP0LzYA_vTyB1si-10" value="B" style="rounded=1;whiteSpace=wrap;html=1;labelBackgroundColor=none;strokeColor=default;fontSize=25;" parent="mtELaRP0LzYA_vTyB1si-9" vertex="1">
          <mxGeometry x="360" y="400" width="90" height="50" as="geometry" />
        </mxCell>
        <mxCell id="mtELaRP0LzYA_vTyB1si-18" style="edgeStyle=orthogonalEdgeStyle;rounded=0;orthogonalLoop=1;jettySize=auto;html=1;exitX=0.5;exitY=0;exitDx=0;exitDy=0;entryX=0.5;entryY=1;entryDx=0;entryDy=0;strokeWidth=3;fontSize=25;fillColor=#dae8fc;strokeColor=#6c8ebf;" parent="mtELaRP0LzYA_vTyB1si-9" source="mtELaRP0LzYA_vTyB1si-12" target="mtELaRP0LzYA_vTyB1si-14" edge="1">
          <mxGeometry relative="1" as="geometry" />
        </mxCell>
        <mxCell id="mtELaRP0LzYA_vTyB1si-12" value="B&quot;" style="rounded=1;whiteSpace=wrap;html=1;labelBackgroundColor=none;strokeColor=default;fontSize=25;" parent="mtELaRP0LzYA_vTyB1si-9" vertex="1">
          <mxGeometry x="360" y="295" width="90" height="50" as="geometry" />
        </mxCell>
        <mxCell id="mtELaRP0LzYA_vTyB1si-14" value="B&#39;" style="rounded=1;whiteSpace=wrap;html=1;labelBackgroundColor=none;strokeColor=default;fontSize=25;" parent="mtELaRP0LzYA_vTyB1si-9" vertex="1">
          <mxGeometry x="360" y="185" width="90" height="50" as="geometry" />
        </mxCell>
        <mxCell id="pqhv2x59xE6C3hau8lDZ-3" style="edgeStyle=orthogonalEdgeStyle;rounded=0;orthogonalLoop=1;jettySize=auto;html=1;exitX=1;exitY=0.5;exitDx=0;exitDy=0;entryX=0;entryY=0.5;entryDx=0;entryDy=0;strokeWidth=3;fontSize=25;" parent="mtELaRP0LzYA_vTyB1si-9" source="pqhv2x59xE6C3hau8lDZ-1" target="mtELaRP0LzYA_vTyB1si-10" edge="1">
          <mxGeometry relative="1" as="geometry" />
        </mxCell>
        <mxCell id="pqhv2x59xE6C3hau8lDZ-1" value="" style="shape=ellipse;strokeColor=none;html=1;fillColor=#000000;fontSize=25;container=0;" parent="mtELaRP0LzYA_vTyB1si-9" vertex="1">
          <mxGeometry x="181.06382978723406" y="416.3366666666667" width="17.4468085106383" height="18.666666666666668" as="geometry" />
        </mxCell>
        <mxCell id="pqhv2x59xE6C3hau8lDZ-2" value="global_ptr" style="text;html=1;strokeColor=none;fillColor=none;align=center;verticalAlign=middle;whiteSpace=wrap;rounded=0;fontSize=25;container=0;" parent="mtELaRP0LzYA_vTyB1si-9" vertex="1">
          <mxGeometry x="120" y="379.00333333333333" width="139.5744680851064" height="37.333333333333336" as="geometry" />
        </mxCell>
        <mxCell id="eqQZ3-OeXB-6L2m80v3y-17" value="B&quot;-&amp;gt; B&quot;&#39;" style="rounded=1;whiteSpace=wrap;html=1;labelBackgroundColor=none;strokeColor=default;fontSize=25;" parent="mtELaRP0LzYA_vTyB1si-9" vertex="1">
          <mxGeometry x="360" y="535" width="90" height="50" as="geometry" />
        </mxCell>
        <mxCell id="eqQZ3-OeXB-6L2m80v3y-19" value="" style="sketch=0;aspect=fixed;pointerEvents=1;shadow=0;dashed=0;html=1;strokeColor=none;labelPosition=center;verticalLabelPosition=bottom;verticalAlign=top;align=center;fillColor=#00188D;shape=mxgraph.mscae.enterprise.lock;labelBackgroundColor=none;fontSize=20;" parent="mtELaRP0LzYA_vTyB1si-9" vertex="1">
          <mxGeometry x="390" y="470" width="30" height="38.46" as="geometry" />
        </mxCell>
        <mxCell id="eqQZ3-OeXB-6L2m80v3y-20" value="" style="edgeStyle=orthogonalEdgeStyle;rounded=0;orthogonalLoop=1;jettySize=auto;html=1;exitX=0.5;exitY=1;exitDx=0;exitDy=0;entryX=0.5;entryY=1;entryDx=0;entryDy=0;strokeWidth=3;fontSize=20;fillColor=#fa6800;strokeColor=#C73500;sketch=1;endArrow=none;" parent="mtELaRP0LzYA_vTyB1si-9" target="mtELaRP0LzYA_vTyB1si-10" edge="1">
          <mxGeometry relative="1" as="geometry">
            <mxPoint x="405" y="485" as="sourcePoint" />
            <mxPoint x="405" y="535" as="targetPoint" />
          </mxGeometry>
        </mxCell>
        <mxCell id="eqQZ3-OeXB-6L2m80v3y-23" value="Per Object Lock&lt;br&gt;and Write Set" style="text;html=1;align=center;verticalAlign=middle;resizable=0;points=[];autosize=1;strokeColor=none;fillColor=none;fontSize=20;" parent="mtELaRP0LzYA_vTyB1si-9" vertex="1">
          <mxGeometry x="410" y="459.23" width="170" height="60" as="geometry" />
        </mxCell>
        <mxCell id="eqQZ3-OeXB-6L2m80v3y-24" value="Version Chain" style="text;html=1;align=center;verticalAlign=middle;resizable=0;points=[];autosize=1;strokeColor=none;fillColor=none;fontSize=20;" parent="mtELaRP0LzYA_vTyB1si-9" vertex="1">
          <mxGeometry x="90" y="250" width="150" height="40" as="geometry" />
        </mxCell>
        <mxCell id="eqQZ3-OeXB-6L2m80v3y-25" value="" style="labelPosition=right;align=left;strokeWidth=3;shape=mxgraph.mockup.markup.curlyBrace;html=1;shadow=0;dashed=0;strokeColor=#000000;direction=north;labelBackgroundColor=none;fontSize=20;fillColor=#FFFFFF;" parent="mtELaRP0LzYA_vTyB1si-9" vertex="1">
          <mxGeometry x="230" y="220" width="20" height="100" as="geometry" />
        </mxCell>
        <mxCell id="pqhv2x59xE6C3hau8lDZ-4" value="time and ts" style="locked=1;" parent="0" />
        <mxCell id="pqhv2x59xE6C3hau8lDZ-7" value="&lt;font style=&quot;font-size: 20px;&quot;&gt;Write Clock&lt;br style=&quot;font-size: 20px;&quot;&gt;23&lt;/font&gt;" style="rounded=1;whiteSpace=wrap;html=1;labelBackgroundColor=none;strokeColor=#82b366;fontSize=20;fillColor=#d5e8d4;" parent="pqhv2x59xE6C3hau8lDZ-4" vertex="1">
          <mxGeometry x="460" y="170" width="120" height="60" as="geometry" />
        </mxCell>
        <mxCell id="eqQZ3-OeXB-6L2m80v3y-11" value="&lt;font style=&quot;font-size: 20px;&quot;&gt;Write Clock&lt;br style=&quot;font-size: 20px;&quot;&gt;30&lt;br style=&quot;font-size: 20px;&quot;&gt;&lt;/font&gt;" style="rounded=1;whiteSpace=wrap;html=1;labelBackgroundColor=none;strokeColor=#82b366;fontSize=20;fillColor=#d5e8d4;" parent="pqhv2x59xE6C3hau8lDZ-4" vertex="1">
          <mxGeometry x="460" y="280" width="120" height="60" as="geometry" />
        </mxCell>
        <mxCell id="eqQZ3-OeXB-6L2m80v3y-15" value="&lt;font style=&quot;font-size: 20px;&quot;&gt;Write Clock&lt;br style=&quot;font-size: 20px;&quot;&gt;INF&lt;br style=&quot;font-size: 20px;&quot;&gt;&lt;/font&gt;" style="rounded=1;whiteSpace=wrap;html=1;labelBackgroundColor=none;strokeColor=#82b366;fontSize=20;fillColor=#d5e8d4;" parent="pqhv2x59xE6C3hau8lDZ-4" vertex="1">
          <mxGeometry x="460" y="520" width="120" height="60" as="geometry" />
        </mxCell>
        <mxCell id="eqQZ3-OeXB-6L2m80v3y-26" value="T4" style="ellipse;whiteSpace=wrap;html=1;aspect=fixed;labelBackgroundColor=none;strokeColor=#6c8ebf;strokeWidth=3;fontSize=20;fillColor=#dae8fc;" parent="pqhv2x59xE6C3hau8lDZ-4" vertex="1">
          <mxGeometry x="100" y="310" width="50" height="50" as="geometry" />
        </mxCell>
        <mxCell id="eqQZ3-OeXB-6L2m80v3y-27" value="" style="curved=1;endArrow=classic;html=1;rounded=0;sketch=1;strokeWidth=3;fontSize=20;entryX=0;entryY=0.75;entryDx=0;entryDy=0;exitX=1;exitY=1;exitDx=0;exitDy=0;" parent="pqhv2x59xE6C3hau8lDZ-4" source="eqQZ3-OeXB-6L2m80v3y-26" target="mtELaRP0LzYA_vTyB1si-15" edge="1">
          <mxGeometry width="50" height="50" relative="1" as="geometry">
            <mxPoint x="160" y="380" as="sourcePoint" />
            <mxPoint x="210" y="330" as="targetPoint" />
            <Array as="points">
              <mxPoint x="210" y="380" />
              <mxPoint x="160" y="330" />
            </Array>
          </mxGeometry>
        </mxCell>
        <mxCell id="eqQZ3-OeXB-6L2m80v3y-28" value="LCK: 25" style="text;html=1;align=center;verticalAlign=middle;resizable=0;points=[];autosize=1;strokeColor=none;fillColor=none;fontSize=20;" parent="pqhv2x59xE6C3hau8lDZ-4" vertex="1">
          <mxGeometry x="75" y="350" width="100" height="40" as="geometry" />
        </mxCell>
      </root>
    </mxGraphModel>
  </diagram>
</mxfile>
